<?xml version="1.0" encoding="UTF-8"?>
<svg id="Camada_1" data-name="Camada 1" xmlns="http://www.w3.org/2000/svg" xmlns:xlink="http://www.w3.org/1999/xlink" viewBox="0 0 2400 200">
  <defs>
    <style>
      .cls-1 {
        fill: #fff;
      }

      .cls-2 {
        stroke: #fff;
      }

      .cls-2, .cls-3, .cls-4 {
        fill: none;
      }

      .cls-2, .cls-4 {
        stroke-miterlimit: 10;
      }

      .cls-5 {
        fill: #7b54bf;
      }

      .cls-6 {
        fill: #282958;
      }

      .cls-4 {
        stroke: #98cfee;
        stroke-width: 109px;
      }

      .cls-7 {
        clip-path: url(#clippath);
      }
    </style>
    <clipPath id="clippath">
      <rect class="cls-3" y="-6.12" width="2400" height="212.24"/>
    </clipPath>
  </defs>
  <g class="cls-7">
    <rect class="cls-6" y="-4.69" width="2400" height="212.24"/>
    <ellipse class="cls-2" cx="901.75" cy="172.66" rx="88.09" ry="93.47"/>
    <ellipse class="cls-5" cx="247.86" cy="154.27" rx="71.34" ry="75.7"/>
    <ellipse class="cls-4" cx="579.55" cy="232.15" rx="272.52" ry="289.19"/>
    <ellipse class="cls-5" cx="964.53" cy="107.52" rx="13.19" ry="14"/>
  </g>
  <g>
    <g>
      <g>
        <path class="cls-1" d="M1431.81,105.87v4.7h-10.82v6.15h8.28v4.52h-8.28v6.27h10.82v4.7h-16.96v-26.35h16.96Z"/>
        <path class="cls-1" d="M1441.9,113.14c.8,0,1.55.08,2.25.23.71.16,1.36.38,1.96.67h5.66v2.05c0,.31-.09.56-.26.74-.18.18-.47.32-.9.42l-1.37.31c.17.54.25,1.1.25,1.68,0,.94-.2,1.78-.59,2.53-.39.75-.93,1.38-1.61,1.91-.68.53-1.49.93-2.41,1.21-.93.28-1.92.43-2.98.43-.59,0-1.15-.04-1.66-.11-.41.24-.61.52-.61.84s.16.54.5.69c.33.14.77.24,1.31.29.54.05,1.16.08,1.86.08s1.41.03,2.13.1c.72.07,1.43.18,2.13.34.7.16,1.32.41,1.86.76.54.35.98.82,1.31,1.41.33.59.5,1.33.5,2.24,0,.85-.2,1.68-.61,2.49s-1.01,1.53-1.81,2.16c-.8.63-1.77,1.13-2.93,1.51-1.16.38-2.48.57-3.98.57s-2.74-.14-3.81-.42c-1.07-.28-1.95-.64-2.66-1.09-.7-.45-1.23-.98-1.56-1.57-.34-.59-.51-1.21-.51-1.85,0-.83.25-1.54.76-2.11.51-.57,1.2-1.02,2.08-1.35-.42-.28-.76-.63-1.01-1.07-.25-.43-.38-.98-.38-1.64,0-.28.05-.57.15-.88.1-.31.25-.61.45-.89.2-.29.46-.57.78-.83.31-.27.69-.5,1.12-.7-.98-.52-1.75-1.2-2.3-2.06-.56-.86-.84-1.85-.84-2.98,0-.94.2-1.79.6-2.54.4-.75.94-1.39,1.64-1.92.69-.53,1.51-.93,2.45-1.21.94-.28,1.96-.42,3.06-.42ZM1446.06,132.86c0-.31-.09-.55-.28-.74-.19-.19-.44-.33-.76-.44-.32-.11-.69-.19-1.12-.24-.43-.05-.89-.07-1.38-.07h-1.54c-.53,0-1.06-.05-1.57-.15-.35.24-.64.51-.86.81s-.33.63-.33,1.01c0,.27.06.51.17.73s.32.4.61.56c.29.16.68.28,1.17.37.49.09,1.11.14,1.85.14.81,0,1.47-.05,1.99-.15.52-.1.93-.23,1.24-.4.31-.17.52-.38.64-.62.12-.24.18-.5.18-.79ZM1441.9,121.85c.93,0,1.6-.23,2.02-.7.42-.46.62-1.06.62-1.8s-.21-1.36-.62-1.79c-.42-.43-1.09-.65-2.02-.65s-1.6.22-2.02.65c-.42.44-.62,1.03-.62,1.79,0,.36.05.69.15.99.1.3.26.56.48.79.22.22.49.4.82.53.33.13.73.19,1.18.19Z"/>
        <path class="cls-1" d="M1454.2,132.22v-18.75h3.33c.28,0,.51.02.7.07.19.05.34.12.47.23.13.1.22.24.29.41.06.17.12.37.17.61l.31,1.75c.69-1.06,1.46-1.9,2.31-2.51.86-.61,1.79-.92,2.8-.92.86,0,1.54.2,2.06.61l-.72,4.12c-.05.25-.15.43-.29.53-.14.1-.34.15-.58.15-.2,0-.44-.03-.72-.08-.28-.06-.63-.08-1.05-.08-1.47,0-2.63.78-3.47,2.35v11.5h-5.61Z"/>
        <path class="cls-1" d="M1477.16,113.17c1.24,0,2.38.19,3.41.58,1.03.39,1.92.95,2.66,1.68.74.74,1.32,1.64,1.74,2.7.41,1.07.62,2.28.62,3.63,0,.42-.02.77-.05,1.03-.04.26-.1.48-.2.63-.1.16-.23.27-.39.32-.16.06-.37.09-.62.09h-10.81c.18,1.57.66,2.7,1.43,3.41.77.71,1.77,1.06,2.98,1.06.65,0,1.21-.08,1.68-.23.47-.16.89-.33,1.26-.53.37-.19.7-.37,1.01-.52.31-.16.63-.23.97-.23.44,0,.78.16,1.01.49l1.63,2.01c-.58.66-1.2,1.2-1.87,1.62-.67.42-1.36.74-2.06.98-.71.23-1.41.4-2.12.49-.7.09-1.38.14-2.02.14-1.31,0-2.55-.22-3.7-.64-1.15-.43-2.16-1.06-3.02-1.91-.86-.84-1.54-1.89-2.04-3.15-.5-1.25-.75-2.71-.75-4.38,0-1.25.21-2.44.64-3.56.43-1.12,1.04-2.1,1.84-2.95.8-.84,1.77-1.51,2.91-2.01,1.14-.49,2.42-.74,3.86-.74ZM1477.27,117.04c-1.07,0-1.91.3-2.51.91-.6.61-1,1.49-1.19,2.63h7c0-.45-.06-.88-.17-1.3-.11-.42-.3-.8-.56-1.13-.26-.33-.6-.6-1.02-.8-.42-.21-.94-.31-1.54-.31Z"/>
        <path class="cls-1" d="M1500.27,117.57c-.14.23-.3.39-.46.49-.16.1-.37.15-.62.15s-.53-.06-.8-.17-.55-.24-.86-.37c-.31-.13-.65-.26-1.04-.37s-.83-.17-1.32-.17c-.71,0-1.26.14-1.64.41-.38.27-.57.65-.57,1.13,0,.35.12.64.37.87.25.23.58.43.99.61.41.17.87.34,1.39.5.52.16,1.05.33,1.59.53s1.07.42,1.59.68c.52.26.98.58,1.39.96.41.38.74.84.99,1.38.25.54.37,1.19.37,1.95,0,.93-.17,1.79-.51,2.57-.34.78-.84,1.46-1.51,2.03-.67.57-1.5,1.01-2.48,1.32-.98.31-2.11.47-3.39.47-.64,0-1.28-.06-1.92-.18-.64-.12-1.26-.28-1.85-.49-.6-.2-1.15-.45-1.66-.73-.51-.28-.94-.59-1.3-.91l1.3-2.06c.16-.24.34-.43.56-.57.22-.14.5-.21.85-.21.33,0,.62.07.88.22.26.15.54.3.84.47.3.17.65.33,1.06.47.4.15.91.22,1.53.22.43,0,.8-.05,1.1-.14s.54-.21.72-.37c.18-.16.31-.33.4-.53s.13-.39.13-.6c0-.37-.13-.68-.38-.92-.25-.24-.59-.45-.99-.62-.41-.18-.88-.34-1.4-.49-.53-.15-1.06-.32-1.6-.52-.54-.19-1.08-.42-1.6-.7-.52-.27-.99-.61-1.4-1.03-.41-.42-.74-.93-.99-1.53-.25-.6-.38-1.33-.38-2.19,0-.79.15-1.55.46-2.27.31-.72.77-1.35,1.38-1.89.61-.54,1.39-.97,2.32-1.29.93-.32,2.01-.48,3.26-.48.67,0,1.33.06,1.96.18.63.12,1.23.29,1.78.51.55.22,1.06.47,1.52.77.46.3.86.62,1.21.97l-1.27,1.97Z"/>
        <path class="cls-1" d="M1516.19,117.57c-.14.23-.3.39-.46.49-.16.1-.37.15-.62.15s-.53-.06-.8-.17-.55-.24-.86-.37c-.31-.13-.65-.26-1.04-.37s-.83-.17-1.32-.17c-.71,0-1.26.14-1.64.41s-.57.65-.57,1.13c0,.35.12.64.37.87.25.23.58.43.99.61.41.17.87.34,1.39.5.52.16,1.05.33,1.59.53s1.07.42,1.59.68c.52.26.98.58,1.39.96.41.38.74.84.99,1.38.25.54.37,1.19.37,1.95,0,.93-.17,1.79-.51,2.57-.34.78-.84,1.46-1.51,2.03-.67.57-1.5,1.01-2.48,1.32-.98.31-2.11.47-3.39.47-.64,0-1.28-.06-1.92-.18-.64-.12-1.26-.28-1.85-.49-.6-.2-1.15-.45-1.66-.73-.51-.28-.94-.59-1.3-.91l1.3-2.06c.16-.24.34-.43.56-.57.22-.14.5-.21.85-.21.33,0,.62.07.88.22.26.15.54.3.84.47.3.17.65.33,1.06.47.4.15.91.22,1.53.22.43,0,.8-.05,1.1-.14s.54-.21.72-.37c.18-.16.31-.33.4-.53.08-.19.13-.39.13-.6,0-.37-.13-.68-.38-.92-.25-.24-.59-.45-.99-.62-.41-.18-.88-.34-1.4-.49-.53-.15-1.06-.32-1.6-.52-.54-.19-1.08-.42-1.6-.7-.52-.27-.99-.61-1.4-1.03s-.74-.93-.99-1.53c-.25-.6-.38-1.33-.38-2.19,0-.79.15-1.55.46-2.27.31-.72.77-1.35,1.38-1.89s1.39-.97,2.32-1.29c.93-.32,2.01-.48,3.26-.48.67,0,1.33.06,1.96.18.63.12,1.23.29,1.78.51.55.22,1.06.47,1.52.77.46.3.86.62,1.21.97l-1.27,1.97Z"/>
        <path class="cls-1" d="M1528.99,113.17c1.42,0,2.72.22,3.89.67,1.17.45,2.17,1.09,3.01,1.92.84.83,1.49,1.84,1.95,3.03.46,1.19.7,2.52.7,4.01s-.23,2.84-.7,4.04c-.46,1.2-1.12,2.22-1.95,3.06-.84.84-1.84,1.48-3.01,1.93-1.17.45-2.47.68-3.89.68s-2.74-.23-3.91-.68c-1.18-.45-2.19-1.1-3.04-1.93-.85-.84-1.51-1.86-1.97-3.06-.46-1.2-.7-2.55-.7-4.04s.23-2.82.7-4.01c.46-1.19,1.12-2.2,1.97-3.03.85-.83,1.86-1.47,3.04-1.92,1.17-.44,2.48-.67,3.91-.67ZM1528.99,128.34c1.29,0,2.24-.45,2.85-1.37s.91-2.29.91-4.15-.3-3.24-.91-4.14c-.61-.91-1.56-1.36-2.85-1.36s-2.3.45-2.91,1.36c-.61.9-.92,2.28-.92,4.14s.31,3.24.92,4.15,1.59,1.37,2.91,1.37Z"/>
        <path class="cls-1" d="M1553.08,117.57c-.14.23-.3.39-.46.49-.16.1-.37.15-.62.15s-.53-.06-.8-.17-.55-.24-.86-.37c-.31-.13-.65-.26-1.04-.37s-.83-.17-1.32-.17c-.71,0-1.26.14-1.64.41s-.57.65-.57,1.13c0,.35.12.64.37.87s.58.43.99.61c.41.17.87.34,1.39.5.52.16,1.05.33,1.59.53s1.07.42,1.59.68c.52.26.98.58,1.39.96.41.38.74.84.99,1.38.25.54.37,1.19.37,1.95,0,.93-.17,1.79-.51,2.57-.34.78-.84,1.46-1.51,2.03-.67.57-1.5,1.01-2.48,1.32-.98.31-2.11.47-3.39.47-.64,0-1.28-.06-1.92-.18-.64-.12-1.26-.28-1.85-.49-.6-.2-1.15-.45-1.66-.73-.51-.28-.94-.59-1.3-.91l1.3-2.06c.16-.24.34-.43.56-.57.22-.14.5-.21.85-.21.33,0,.62.07.88.22.26.15.54.3.84.47.3.17.65.33,1.06.47.4.15.91.22,1.53.22.43,0,.8-.05,1.1-.14s.54-.21.72-.37c.18-.16.31-.33.4-.53s.13-.39.13-.6c0-.37-.13-.68-.38-.92-.25-.24-.59-.45-.99-.62-.41-.18-.88-.34-1.4-.49-.53-.15-1.06-.32-1.6-.52-.54-.19-1.08-.42-1.6-.7-.52-.27-.99-.61-1.4-1.03-.41-.42-.74-.93-.99-1.53-.25-.6-.38-1.33-.38-2.19,0-.79.15-1.55.46-2.27.31-.72.77-1.35,1.38-1.89.61-.54,1.39-.97,2.32-1.29.93-.32,2.01-.48,3.26-.48.67,0,1.33.06,1.96.18.63.12,1.23.29,1.78.51.55.22,1.06.47,1.52.77.46.3.86.62,1.21.97l-1.27,1.97Z"/>
        <path class="cls-1" d="M1577.67,132.22c-.35,0-.64-.08-.88-.23s-.4-.39-.5-.71l-.44-1.43c-.37.4-.77.76-1.17,1.09-.41.32-.85.61-1.33.84-.48.23-.99.42-1.54.54-.55.13-1.14.19-1.78.19-.98,0-1.88-.22-2.71-.65-.83-.44-1.55-1.06-2.15-1.88-.6-.82-1.08-1.82-1.42-3.01-.34-1.19-.51-2.54-.51-4.06,0-1.4.19-2.7.58-3.9.39-1.2.93-2.24,1.64-3.11.7-.87,1.55-1.56,2.54-2.05.99-.49,2.08-.74,3.27-.74.96,0,1.78.14,2.45.43.67.28,1.28.65,1.82,1.11v-9.49h5.61v27.07h-3.47ZM1572,128.2c.41,0,.78-.04,1.11-.12s.64-.19.91-.33c.28-.15.54-.33.79-.54.25-.22.49-.47.73-.76v-7.96c-.43-.47-.9-.8-1.38-.99-.49-.19-1-.28-1.54-.28s-.99.1-1.43.31c-.43.21-.81.53-1.13.99-.32.45-.57,1.04-.75,1.76-.18.72-.27,1.6-.27,2.62s.07,1.82.22,2.5c.15.68.35,1.22.61,1.64.26.41.57.71.93.89.36.18.77.27,1.21.27Z"/>
        <path class="cls-1" d="M1593.84,113.17c1.42,0,2.72.22,3.89.67,1.17.45,2.17,1.09,3.01,1.92.84.83,1.49,1.84,1.95,3.03s.7,2.52.7,4.01-.23,2.84-.7,4.04c-.46,1.2-1.12,2.22-1.95,3.06-.84.84-1.84,1.48-3.01,1.93-1.17.45-2.47.68-3.89.68s-2.74-.23-3.91-.68c-1.18-.45-2.19-1.1-3.04-1.93-.85-.84-1.51-1.86-1.97-3.06-.46-1.2-.7-2.55-.7-4.04s.23-2.82.7-4.01c.46-1.19,1.12-2.2,1.97-3.03.85-.83,1.86-1.47,3.04-1.92,1.17-.44,2.48-.67,3.91-.67ZM1593.84,128.34c1.29,0,2.24-.45,2.85-1.37.61-.91.91-2.29.91-4.15s-.3-3.24-.91-4.14c-.61-.91-1.56-1.36-2.85-1.36s-2.3.45-2.91,1.36c-.61.9-.92,2.28-.92,4.14s.31,3.24.92,4.15,1.59,1.37,2.91,1.37Z"/>
        <path class="cls-1" d="M1628.13,111.22c-.18.29-.37.51-.57.65s-.46.22-.77.22c-.28,0-.57-.09-.9-.26-.32-.17-.68-.37-1.08-.59-.4-.22-.86-.41-1.38-.59-.52-.18-1.11-.26-1.77-.26-1.14,0-2,.24-2.56.73-.56.49-.84,1.15-.84,1.98,0,.53.17.97.51,1.32.34.35.78.65,1.33.91.55.25,1.18.48,1.88.7.71.21,1.43.44,2.16.7.74.26,1.45.56,2.16.91.7.35,1.33.8,1.88,1.34.55.54.99,1.2,1.33,1.98.34.78.51,1.71.51,2.81,0,1.22-.21,2.36-.63,3.42-.42,1.06-1.03,1.99-1.84,2.78-.8.79-1.79,1.41-2.97,1.86-1.18.45-2.51.68-4.01.68-.82,0-1.65-.09-2.51-.25-.85-.17-1.67-.41-2.47-.71-.8-.31-1.54-.67-2.24-1.09s-1.31-.89-1.83-1.41l1.81-2.86c.13-.22.32-.39.56-.53.24-.13.5-.2.78-.2.36,0,.73.11,1.09.34.37.23.78.48,1.25.76.46.28,1,.53,1.6.76.6.23,1.31.34,2.13.34,1.11,0,1.97-.24,2.59-.73.61-.49.92-1.26.92-2.32,0-.61-.17-1.12-.51-1.5s-.78-.71-1.33-.96c-.55-.25-1.17-.48-1.87-.67-.7-.19-1.42-.41-2.15-.64-.74-.23-1.45-.53-2.15-.87-.7-.34-1.32-.79-1.87-1.36-.55-.56-.99-1.26-1.33-2.1s-.51-1.87-.51-3.1c0-.99.2-1.95.6-2.89.4-.94.98-1.78,1.75-2.51.77-.74,1.72-1.32,2.84-1.76,1.12-.44,2.41-.66,3.85-.66.81,0,1.59.06,2.36.19.76.13,1.49.32,2.18.56s1.33.54,1.93.89c.6.34,1.13.73,1.6,1.17l-1.52,2.84Z"/>
        <path class="cls-1" d="M1641.08,113.17c1.24,0,2.38.19,3.41.58,1.03.39,1.92.95,2.66,1.68.74.74,1.32,1.64,1.74,2.7.41,1.07.62,2.28.62,3.63,0,.42-.02.77-.05,1.03-.04.26-.1.48-.2.63-.1.16-.23.27-.39.32-.16.06-.37.09-.62.09h-10.81c.18,1.57.66,2.7,1.43,3.41.77.71,1.77,1.06,2.98,1.06.65,0,1.21-.08,1.68-.23.47-.16.89-.33,1.26-.53.37-.19.7-.37,1.01-.52s.63-.23.97-.23c.44,0,.78.16,1.01.49l1.63,2.01c-.58.66-1.2,1.2-1.87,1.62-.67.42-1.36.74-2.06.98-.71.23-1.41.4-2.12.49-.7.09-1.38.14-2.02.14-1.31,0-2.55-.22-3.7-.64s-2.16-1.06-3.02-1.91c-.86-.84-1.54-1.89-2.04-3.15-.5-1.25-.75-2.71-.75-4.38,0-1.25.21-2.44.64-3.56s1.04-2.1,1.84-2.95c.8-.84,1.77-1.51,2.91-2.01,1.14-.49,2.42-.74,3.86-.74ZM1641.19,117.04c-1.07,0-1.91.3-2.51.91-.6.61-1,1.49-1.19,2.63h7c0-.45-.06-.88-.17-1.3s-.3-.8-.56-1.13c-.26-.33-.6-.6-1.02-.8-.42-.21-.94-.31-1.54-.31Z"/>
        <path class="cls-1" d="M1652.72,132.22v-18.75h3.47c.35,0,.64.08.88.23.23.16.4.39.5.71l.32,1.08c.36-.34.74-.65,1.12-.94.39-.29.8-.53,1.24-.73.44-.2.92-.36,1.43-.47.51-.11,1.07-.17,1.67-.17,1.02,0,1.93.18,2.72.53.79.36,1.45.85,2,1.48.54.63.95,1.39,1.23,2.26.28.87.41,1.82.41,2.85v11.92h-5.61v-11.92c0-.91-.21-1.63-.63-2.14-.42-.51-1.04-.77-1.86-.77-.61,0-1.19.13-1.74.4-.54.27-1.06.62-1.55,1.07v13.36h-5.61Z"/>
        <path class="cls-1" d="M1686.65,132.22c-.53,0-.93-.07-1.2-.22-.27-.14-.5-.44-.68-.9l-.4-1.03c-.47.4-.92.75-1.36,1.05-.43.3-.88.56-1.35.77-.47.21-.96.37-1.48.47s-1.11.15-1.75.15c-.86,0-1.63-.11-2.33-.34-.7-.22-1.29-.55-1.78-.99-.49-.44-.86-.98-1.13-1.62-.27-.65-.4-1.39-.4-2.24,0-.66.17-1.35.51-2.05.34-.7.92-1.34,1.75-1.91s1.95-1.06,3.36-1.44c1.41-.39,3.19-.58,5.33-.58v-.8c0-1.11-.23-1.91-.68-2.4-.45-.49-1.09-.74-1.92-.74-.66,0-1.21.07-1.63.22-.42.15-.8.31-1.13.49-.33.18-.65.34-.97.49-.32.14-.69.22-1.12.22-.39,0-.71-.09-.99-.28s-.48-.42-.64-.7l-1.01-1.75c1.13-1,2.39-1.75,3.77-2.23,1.38-.49,2.86-.73,4.44-.73,1.13,0,2.15.18,3.06.55.91.37,1.68.88,2.31,1.54.63.66,1.12,1.44,1.46,2.34.34.91.51,1.89.51,2.97v11.72h-2.57ZM1680.21,128.8c.72,0,1.36-.13,1.9-.38.54-.25,1.09-.66,1.65-1.23v-2.57c-1.12,0-2.05.07-2.77.22-.72.15-1.29.33-1.72.55-.42.22-.71.47-.88.75-.16.28-.24.58-.24.91,0,.64.18,1.1.53,1.36.35.26.86.39,1.54.39Z"/>
        <path class="cls-1" d="M1706.72,117.91c-.17.21-.33.37-.49.49s-.38.18-.67.18-.53-.07-.75-.2c-.22-.13-.47-.28-.75-.44-.28-.16-.6-.31-.98-.44-.37-.13-.84-.2-1.39-.2-.69,0-1.28.13-1.78.38-.5.25-.91.61-1.24,1.08-.32.47-.57,1.05-.72,1.73s-.23,1.45-.23,2.31c0,1.79.35,3.18,1.04,4.14.69.97,1.65,1.45,2.87,1.45.65,0,1.17-.08,1.55-.24s.7-.34.97-.54c.26-.2.51-.38.73-.55.22-.17.5-.25.84-.25.44,0,.78.16,1.01.49l1.63,2.01c-.58.66-1.19,1.2-1.83,1.62-.64.42-1.29.74-1.96.98-.67.23-1.34.4-2.02.49-.68.09-1.33.14-1.97.14-1.15,0-2.24-.22-3.28-.65-1.04-.44-1.96-1.07-2.75-1.89-.79-.83-1.42-1.84-1.88-3.05-.46-1.2-.7-2.58-.7-4.12,0-1.35.2-2.61.61-3.79.4-1.17,1-2.19,1.79-3.06.79-.86,1.77-1.54,2.93-2.04,1.16-.49,2.51-.74,4.04-.74s2.76.23,3.87.7,2.11,1.16,3,2.06l-1.48,1.97Z"/>
      </g>
      <path class="cls-1" d="M1420.77,45.83v8.45h-5.98v-25.28h9.09c1.82,0,3.37.21,4.68.63,1.3.42,2.38,1,3.22,1.74.84.74,1.46,1.61,1.87,2.62.4,1.01.6,2.09.6,3.26,0,1.26-.21,2.42-.62,3.47-.41,1.05-1.04,1.96-1.89,2.71-.85.75-1.92,1.34-3.23,1.76-1.3.42-2.85.63-4.62.63h-3.11ZM1420.77,41.4h3.11c1.56,0,2.68-.36,3.36-1.09.68-.73,1.03-1.75,1.03-3.05,0-.58-.09-1.1-.27-1.58-.18-.48-.44-.88-.8-1.22-.36-.34-.81-.6-1.36-.79-.55-.19-1.2-.28-1.96-.28h-3.11v8.02Z"/>
      <path class="cls-1" d="M1444.68,36.01c1.21,0,2.33.19,3.33.56,1.01.37,1.87.91,2.6,1.61.73.71,1.29,1.57,1.7,2.59.41,1.02.61,2.18.61,3.48,0,.4-.02.73-.05.99-.04.26-.1.46-.19.61-.1.15-.22.25-.38.31-.16.06-.36.09-.61.09h-10.57c.18,1.5.64,2.59,1.4,3.27.75.68,1.73,1.01,2.92,1.01.64,0,1.18-.07,1.64-.22s.87-.32,1.23-.5c.36-.19.69-.35.99-.5.3-.15.62-.22.95-.22.44,0,.77.16.99.47l1.59,1.93c-.57.63-1.18,1.15-1.83,1.55-.65.4-1.33.71-2.01.94-.69.22-1.38.38-2.07.47-.69.09-1.35.13-1.97.13-1.29,0-2.49-.21-3.62-.62-1.13-.41-2.11-1.02-2.95-1.83-.84-.81-1.51-1.82-2-3.02-.49-1.2-.73-2.6-.73-4.2,0-1.2.21-2.34.63-3.42s1.02-2.02,1.8-2.83c.78-.81,1.73-1.45,2.85-1.93,1.11-.47,2.37-.71,3.77-.71ZM1444.79,39.72c-1.05,0-1.87.29-2.46.88-.59.58-.98,1.42-1.17,2.52h6.84c0-.43-.06-.84-.17-1.25-.11-.4-.29-.76-.55-1.08-.25-.32-.59-.57-1-.77s-.91-.3-1.5-.3Z"/>
      <path class="cls-1" d="M1467.28,40.22c-.14.22-.29.38-.45.47-.16.09-.36.14-.61.14s-.52-.05-.78-.16c-.26-.11-.54-.23-.84-.35-.3-.13-.64-.25-1.02-.36s-.81-.16-1.29-.16c-.7,0-1.23.13-1.6.39-.37.26-.56.62-.56,1.08,0,.34.12.61.36.83s.56.41.96.58.85.33,1.36.48c.51.15,1.03.32,1.56.5s1.05.4,1.56.65c.51.25.96.56,1.36.92.4.36.72.81.96,1.33.24.52.36,1.14.36,1.88,0,.89-.16,1.71-.49,2.46-.33.75-.82,1.4-1.48,1.94-.65.54-1.46.97-2.42,1.27-.96.3-2.07.45-3.31.45-.63,0-1.25-.06-1.88-.17-.62-.11-1.23-.27-1.81-.47-.58-.2-1.12-.43-1.62-.7-.5-.27-.92-.56-1.27-.88l1.27-1.98c.15-.23.33-.41.55-.55.21-.13.49-.2.83-.2.32,0,.6.07.86.21.25.14.53.29.82.45.29.16.64.31,1.03.45.4.14.89.21,1.5.21.42,0,.78-.04,1.08-.13.29-.09.53-.21.71-.36.18-.15.31-.32.39-.5s.12-.38.12-.57c0-.36-.12-.65-.37-.89-.25-.23-.57-.43-.97-.6s-.86-.32-1.37-.47c-.51-.14-1.03-.31-1.56-.49-.53-.18-1.05-.41-1.57-.67-.51-.26-.97-.59-1.37-.99s-.72-.89-.97-1.47c-.25-.58-.37-1.28-.37-2.1,0-.76.15-1.49.45-2.18.3-.69.75-1.29,1.35-1.81s1.36-.93,2.26-1.24c.91-.31,1.97-.46,3.18-.46.66,0,1.3.06,1.92.17.62.12,1.2.28,1.74.49.54.21,1.04.46,1.49.74.45.28.84.59,1.19.93l-1.24,1.89Z"/>
      <path class="cls-1" d="M1487.9,36.29v23.7h-5.48v-7.67c-.7.67-1.47,1.21-2.33,1.62-.86.41-1.88.62-3.04.62-.95,0-1.84-.21-2.65-.63-.81-.41-1.51-1.02-2.1-1.8-.59-.79-1.05-1.75-1.39-2.89-.34-1.14-.5-2.44-.5-3.89,0-1.34.19-2.59.57-3.74.38-1.15.91-2.15,1.6-2.98.69-.84,1.52-1.5,2.49-1.97.97-.47,2.03-.71,3.2-.71.55,0,1.05.05,1.5.14.45.09.86.22,1.23.4.37.17.72.38,1.03.63.32.24.62.51.92.8l.23-.71c.21-.6.66-.9,1.34-.9h3.39ZM1478.95,50.42c.4,0,.76-.04,1.09-.11.32-.08.62-.18.89-.32.27-.14.53-.31.77-.52.24-.21.48-.45.72-.73v-7.63c-.42-.44-.87-.75-1.35-.94-.48-.19-.98-.28-1.51-.28s-.97.1-1.4.3c-.42.19-.79.51-1.1.94-.31.43-.56,1-.74,1.69-.18.69-.27,1.53-.27,2.52s.07,1.75.21,2.39c.14.65.34,1.17.59,1.57.25.4.56.68.91.86s.75.26,1.18.26Z"/>
      <path class="cls-1" d="M1497.27,36.29v11.41c0,.89.21,1.58.62,2.07s1.02.73,1.82.73c.6,0,1.16-.12,1.69-.36.53-.24,1.03-.58,1.53-1.02v-12.82h5.48v17.99h-3.39c-.68,0-1.13-.3-1.34-.9l-.34-1.04c-.35.34-.72.64-1.1.91-.38.27-.78.5-1.21.69-.43.19-.89.34-1.39.45-.49.11-1.04.16-1.63.16-1,0-1.89-.17-2.66-.51-.77-.34-1.42-.82-1.95-1.43-.53-.61-.93-1.34-1.2-2.17-.27-.83-.41-1.74-.41-2.74v-11.41h5.48Z"/>
      <path class="cls-1" d="M1518.95,31.36c0,.43-.09.83-.27,1.2-.18.38-.42.71-.73.99-.31.28-.66.51-1.07.68-.41.17-.84.25-1.3.25s-.87-.08-1.26-.25-.73-.39-1.03-.68c-.3-.28-.54-.61-.71-.99-.17-.38-.26-.78-.26-1.2s.08-.85.26-1.23c.17-.38.41-.72.71-1.01.3-.29.65-.51,1.03-.68.39-.16.81-.24,1.26-.24s.89.08,1.3.24.76.39,1.07.68c.31.29.55.63.73,1.01.18.38.27.79.27,1.23ZM1518.31,36.29v17.99h-5.48v-17.99h5.48Z"/>
      <path class="cls-1" d="M1533.94,40.22c-.14.22-.29.38-.45.47-.16.09-.36.14-.61.14s-.52-.05-.78-.16c-.26-.11-.54-.23-.84-.35-.3-.13-.64-.25-1.02-.36s-.81-.16-1.29-.16c-.7,0-1.23.13-1.6.39-.37.26-.56.62-.56,1.08,0,.34.12.61.36.83s.56.41.96.58.85.33,1.36.48c.51.15,1.03.32,1.56.5s1.05.4,1.56.65c.51.25.96.56,1.36.92.4.36.72.81.96,1.33.24.52.36,1.14.36,1.88,0,.89-.16,1.71-.49,2.46-.33.75-.82,1.4-1.48,1.94-.65.54-1.46.97-2.42,1.27-.96.3-2.07.45-3.31.45-.63,0-1.25-.06-1.88-.17-.62-.11-1.23-.27-1.81-.47-.58-.2-1.12-.43-1.62-.7-.5-.27-.92-.56-1.27-.88l1.27-1.98c.15-.23.33-.41.55-.55.21-.13.49-.2.83-.2.32,0,.6.07.86.21.25.14.53.29.82.45.29.16.64.31,1.03.45.4.14.89.21,1.5.21.42,0,.78-.04,1.08-.13.29-.09.53-.21.71-.36.18-.15.31-.32.39-.5s.12-.38.12-.57c0-.36-.12-.65-.37-.89-.25-.23-.57-.43-.97-.6-.4-.17-.86-.32-1.37-.47-.51-.14-1.03-.31-1.56-.49-.53-.18-1.05-.41-1.57-.67-.51-.26-.97-.59-1.37-.99s-.72-.89-.97-1.47c-.25-.58-.37-1.28-.37-2.1,0-.76.15-1.49.45-2.18.3-.69.75-1.29,1.35-1.81s1.36-.93,2.26-1.24c.91-.31,1.97-.46,3.18-.46.66,0,1.3.06,1.92.17.62.12,1.2.28,1.74.49s1.04.46,1.49.74c.45.28.84.59,1.19.93l-1.24,1.89Z"/>
      <path class="cls-1" d="M1550.95,54.27c-.52,0-.91-.07-1.18-.21s-.49-.43-.66-.87l-.39-.99c-.46.38-.9.72-1.33,1.01-.43.29-.86.54-1.32.74-.45.2-.94.35-1.45.45-.51.1-1.08.15-1.71.15-.84,0-1.6-.11-2.28-.32-.68-.22-1.26-.53-1.74-.95-.48-.42-.85-.94-1.11-1.56-.26-.62-.39-1.34-.39-2.15,0-.64.17-1.29.5-1.97.33-.67.9-1.28,1.71-1.84.81-.55,1.91-1.01,3.29-1.38,1.38-.37,3.12-.56,5.22-.56v-.77c0-1.06-.22-1.83-.66-2.3-.44-.47-1.07-.71-1.88-.71-.65,0-1.18.07-1.59.21-.41.14-.78.3-1.11.47-.32.17-.64.33-.95.47-.31.14-.67.21-1.1.21-.38,0-.7-.09-.96-.27-.27-.18-.47-.4-.63-.67l-.99-1.68c1.11-.96,2.34-1.67,3.69-2.14,1.35-.47,2.8-.7,4.34-.7,1.11,0,2.11.18,3,.53.89.35,1.64.84,2.26,1.47.62.63,1.09,1.38,1.42,2.25.33.87.49,1.82.49,2.84v11.24h-2.51ZM1544.66,51c.71,0,1.33-.12,1.86-.36.53-.24,1.07-.64,1.61-1.18v-2.46c-1.1,0-2,.07-2.71.21-.71.14-1.27.32-1.68.53-.41.21-.7.45-.86.72-.16.27-.24.56-.24.87,0,.62.17,1.05.51,1.3.34.25.84.38,1.5.38Z"/>
      <path class="cls-1" d="M1567.98,29.03c.18.02.34.07.48.13.14.06.28.15.41.27.13.11.28.27.44.47l12.24,15.18c-.05-.49-.08-.96-.11-1.41-.02-.46-.04-.89-.04-1.29v-13.37h5.27v25.28h-3.11c-.46,0-.85-.07-1.17-.21-.32-.14-.63-.39-.92-.76l-12.15-15.06c.04.44.06.87.09,1.29.02.42.04.82.04,1.19v13.55h-5.27v-25.28h3.15c.26,0,.48.01.65.04Z"/>
      <path class="cls-1" d="M1603.57,54.27c-.52,0-.91-.07-1.18-.21-.27-.14-.49-.43-.66-.87l-.39-.99c-.46.38-.9.72-1.33,1.01-.43.29-.86.54-1.32.74-.45.2-.94.35-1.45.45-.51.1-1.08.15-1.71.15-.84,0-1.6-.11-2.28-.32-.68-.22-1.26-.53-1.74-.95-.48-.42-.85-.94-1.11-1.56s-.39-1.34-.39-2.15c0-.64.17-1.29.5-1.97.33-.67.9-1.28,1.71-1.84.81-.55,1.91-1.01,3.29-1.38,1.38-.37,3.12-.56,5.22-.56v-.77c0-1.06-.22-1.83-.66-2.3-.44-.47-1.07-.71-1.88-.71-.65,0-1.18.07-1.59.21-.41.14-.78.3-1.11.47-.32.17-.64.33-.95.47-.31.14-.67.21-1.1.21-.38,0-.7-.09-.96-.27-.27-.18-.47-.4-.63-.67l-.99-1.68c1.11-.96,2.34-1.67,3.69-2.14,1.35-.47,2.8-.7,4.34-.7,1.11,0,2.11.18,3,.53.89.35,1.64.84,2.26,1.47.62.63,1.09,1.38,1.42,2.25.33.87.49,1.82.49,2.84v11.24h-2.51ZM1597.28,51c.71,0,1.33-.12,1.86-.36.53-.24,1.07-.64,1.61-1.18v-2.46c-1.1,0-2,.07-2.71.21-.71.14-1.27.32-1.68.53-.41.21-.7.45-.86.72-.16.27-.24.56-.24.87,0,.62.17,1.05.51,1.3.34.25.84.38,1.5.38Z"/>
      <path class="cls-1" d="M1623.2,40.55c-.16.2-.32.35-.48.47-.15.12-.37.17-.65.17s-.52-.06-.74-.19c-.22-.13-.46-.27-.73-.43s-.59-.3-.95-.43c-.37-.13-.82-.19-1.36-.19-.67,0-1.25.12-1.74.36-.49.24-.89.59-1.21,1.04-.32.45-.55,1-.71,1.66-.15.65-.23,1.39-.23,2.21,0,1.72.34,3.05,1.02,3.97.68.92,1.61,1.39,2.8,1.39.64,0,1.14-.08,1.51-.24.37-.16.69-.33.95-.52s.5-.37.72-.53c.22-.16.49-.24.82-.24.44,0,.77.16.99.47l1.59,1.93c-.57.63-1.16,1.15-1.79,1.55-.62.4-1.26.71-1.92.94-.65.22-1.31.38-1.97.47-.66.09-1.3.13-1.93.13-1.12,0-2.19-.21-3.21-.63-1.02-.41-1.92-1.02-2.69-1.81s-1.38-1.77-1.84-2.92c-.45-1.16-.68-2.47-.68-3.96,0-1.29.2-2.5.59-3.63.4-1.13.98-2.1,1.75-2.93.77-.83,1.73-1.48,2.86-1.95,1.14-.47,2.45-.71,3.95-.71s2.7.23,3.78.68c1.08.45,2.06,1.11,2.94,1.98l-1.45,1.89Z"/>
      <path class="cls-1" d="M1633.46,31.36c0,.43-.09.83-.27,1.2-.18.38-.42.71-.73.99-.31.28-.66.51-1.07.68-.41.17-.84.25-1.3.25s-.87-.08-1.26-.25c-.39-.17-.73-.39-1.03-.68-.3-.28-.54-.61-.71-.99-.17-.38-.26-.78-.26-1.2s.08-.85.26-1.23c.17-.38.41-.72.71-1.01.3-.29.65-.51,1.03-.68s.81-.24,1.26-.24.89.08,1.3.24c.41.16.76.39,1.07.68.31.29.55.63.73,1.01.18.38.27.79.27,1.23ZM1632.82,36.29v17.99h-5.48v-17.99h5.48Z"/>
      <path class="cls-1" d="M1645.41,36.01c1.39,0,2.66.22,3.8.64,1.14.43,2.12,1.04,2.94,1.84.82.8,1.45,1.77,1.91,2.91.45,1.14.68,2.42.68,3.84s-.23,2.73-.68,3.88c-.45,1.15-1.09,2.13-1.91,2.93-.82.81-1.8,1.42-2.94,1.86-1.14.43-2.41.65-3.8.65s-2.68-.22-3.83-.65c-1.15-.43-2.14-1.05-2.97-1.86-.83-.8-1.47-1.78-1.93-2.93-.45-1.15-.68-2.44-.68-3.88s.23-2.7.68-3.84c.45-1.14,1.1-2.11,1.93-2.91s1.82-1.41,2.97-1.84c1.15-.43,2.42-.64,3.83-.64ZM1645.41,50.56c1.26,0,2.19-.44,2.78-1.31.6-.87.89-2.2.89-3.98s-.3-3.11-.89-3.97c-.6-.87-1.52-1.3-2.78-1.3s-2.25.43-2.85,1.3c-.6.87-.9,2.19-.9,3.97s.3,3.11.9,3.98c.6.87,1.55,1.31,2.85,1.31Z"/>
      <path class="cls-1" d="M1657.75,54.27v-17.99h3.39c.34,0,.63.08.86.22.23.15.39.38.49.68l.32,1.04c.35-.32.72-.62,1.1-.9.38-.28.78-.51,1.21-.7.43-.19.9-.34,1.4-.45.5-.11,1.05-.16,1.64-.16,1,0,1.89.17,2.66.51.77.34,1.42.82,1.96,1.42.53.61.93,1.33,1.2,2.17.27.84.41,1.75.41,2.73v11.43h-5.48v-11.43c0-.88-.21-1.56-.62-2.06-.41-.49-1.02-.74-1.82-.74-.6,0-1.17.13-1.7.38-.53.25-1.04.6-1.52,1.02v12.82h-5.48Z"/>
      <path class="cls-1" d="M1690.93,54.27c-.52,0-.91-.07-1.18-.21s-.49-.43-.66-.87l-.39-.99c-.46.38-.9.72-1.33,1.01-.43.29-.86.54-1.32.74-.45.2-.94.35-1.45.45-.51.1-1.08.15-1.71.15-.84,0-1.6-.11-2.28-.32-.68-.22-1.26-.53-1.74-.95-.48-.42-.85-.94-1.11-1.56-.26-.62-.39-1.34-.39-2.15,0-.64.17-1.29.5-1.97.33-.67.9-1.28,1.71-1.84.81-.55,1.91-1.01,3.29-1.38,1.38-.37,3.12-.56,5.22-.56v-.77c0-1.06-.22-1.83-.66-2.3-.44-.47-1.07-.71-1.88-.71-.65,0-1.18.07-1.59.21-.41.14-.78.3-1.11.47-.32.17-.64.33-.95.47-.31.14-.67.21-1.1.21-.38,0-.7-.09-.96-.27-.27-.18-.47-.4-.63-.67l-.99-1.68c1.11-.96,2.34-1.67,3.69-2.14,1.35-.47,2.8-.7,4.34-.7,1.11,0,2.11.18,3,.53.89.35,1.64.84,2.26,1.47.62.63,1.09,1.38,1.42,2.25.33.87.49,1.82.49,2.84v11.24h-2.51ZM1684.63,51c.71,0,1.33-.12,1.86-.36.53-.24,1.07-.64,1.61-1.18v-2.46c-1.1,0-2,.07-2.71.21-.71.14-1.27.32-1.68.53-.41.21-.7.45-.86.72-.16.27-.24.56-.24.87,0,.62.17,1.05.51,1.3.34.25.84.38,1.5.38Z"/>
      <path class="cls-1" d="M1702.98,28.3v25.97h-5.48v-25.97h5.48Z"/>
      <path class="cls-1" d="M1426.26,93.8c-.4,0-.65-.21-.76-.62l-.25-2.08c-.68.89-1.47,1.6-2.35,2.13-.88.53-1.89.8-3.03.8-.92,0-1.75-.19-2.5-.57-.75-.38-1.39-.93-1.91-1.66s-.93-1.64-1.22-2.73c-.28-1.09-.43-2.35-.43-3.76,0-1.26.16-2.43.48-3.52.32-1.08.77-2.03,1.37-2.83.6-.8,1.32-1.43,2.17-1.88.85-.45,1.82-.68,2.91-.68.98,0,1.82.18,2.51.53.7.35,1.32.85,1.87,1.49v-9.49h2.81v24.86h-1.68ZM1420.8,91.61c.92,0,1.72-.23,2.41-.68.69-.45,1.33-1.08,1.9-1.91v-8.27c-.52-.74-1.08-1.26-1.7-1.56-.62-.3-1.3-.45-2.05-.45-1.5,0-2.65.57-3.45,1.71-.8,1.14-1.2,2.76-1.2,4.86,0,1.11.09,2.07.27,2.86.18.79.44,1.45.79,1.96.35.51.78.89,1.28,1.12.51.24,1.09.36,1.74.36Z"/>
      <path class="cls-1" d="M1439,76.43c.96,0,1.84.17,2.66.51.81.34,1.51.84,2.1,1.49.59.65,1.05,1.45,1.38,2.4s.5,2.03.5,3.25c0,.47-.05.79-.14.95-.1.16-.27.24-.54.24h-10.66c.02,1.08.16,2.02.41,2.82.25.8.6,1.47,1.04,2,.44.53.97.93,1.58,1.2.61.27,1.3.4,2.05.4.71,0,1.32-.09,1.83-.26.51-.17.95-.36,1.32-.57.37-.2.68-.39.92-.57s.46-.26.64-.26c.23,0,.41.1.54.29l.79,1.1c-.35.45-.76.84-1.25,1.17-.48.33-1,.61-1.56.82-.55.21-1.12.37-1.71.48-.59.11-1.18.16-1.75.16-1.11,0-2.13-.2-3.06-.6-.93-.4-1.74-.99-2.42-1.75-.68-.77-1.21-1.72-1.59-2.86-.38-1.14-.57-2.44-.57-3.92,0-1.19.17-2.31.51-3.34.34-1.03.83-1.93,1.48-2.69.64-.76,1.43-1.36,2.36-1.79.93-.43,1.97-.65,3.13-.65ZM1439.06,78.64c-1.36,0-2.43.42-3.21,1.26-.78.84-1.26,2-1.45,3.49h8.71c0-.7-.09-1.34-.27-1.92-.18-.58-.44-1.08-.79-1.5-.35-.42-.77-.75-1.27-.98-.5-.23-1.07-.35-1.72-.35Z"/>
      <path class="cls-1" d="M1474.41,93.8h-2.37c-.27,0-.5-.07-.66-.22-.17-.15-.3-.33-.38-.56l-2.12-5.84h-10.17l-2.12,5.84c-.07.2-.2.38-.38.54-.18.16-.4.24-.66.24h-2.37l9.06-24.19h3.11l9.06,24.19ZM1459.57,84.82h8.46l-3.56-9.84c-.23-.61-.46-1.37-.68-2.28-.12.46-.23.89-.34,1.28-.11.39-.22.73-.32,1.02l-3.56,9.82Z"/>
      <path class="cls-1" d="M1473.51,76.7h2.31c.22,0,.4.06.55.19.15.12.25.27.32.44l4.06,11.01c.15.4.26.81.35,1.21.08.41.16.81.24,1.2.08-.39.17-.79.27-1.2.1-.4.22-.81.36-1.21l4.11-11.01c.06-.18.16-.33.31-.45s.32-.18.53-.18h2.2l-6.53,17.1h-2.55l-6.53-17.1Z"/>
      <path class="cls-1" d="M1503.49,93.8h-1.25c-.27,0-.5-.04-.66-.14-.17-.09-.28-.28-.33-.57l-.32-1.59c-.42.4-.83.77-1.23,1.09-.4.32-.82.59-1.26.81-.44.22-.91.39-1.42.5-.5.11-1.06.17-1.67.17s-1.2-.09-1.75-.28c-.54-.19-1.01-.47-1.41-.84-.4-.37-.72-.84-.96-1.41-.24-.57-.36-1.24-.36-2.02,0-.68.17-1.33.52-1.96.35-.63.91-1.18,1.68-1.67s1.79-.88,3.04-1.19c1.25-.31,2.79-.47,4.6-.47v-1.34c0-1.34-.27-2.35-.8-3.03-.53-.68-1.32-1.03-2.36-1.03-.69,0-1.26.09-1.73.28-.47.19-.87.39-1.22.62-.34.23-.64.44-.89.62-.25.19-.49.28-.74.28-.19,0-.36-.05-.5-.16-.14-.11-.25-.24-.34-.4l-.51-.96c.89-.91,1.84-1.59,2.86-2.04,1.02-.45,2.16-.68,3.4-.68.9,0,1.69.16,2.39.47.7.32,1.28.75,1.75,1.32.47.56.83,1.24,1.08,2.04.24.8.36,1.68.36,2.63v10.94ZM1496.18,91.96c.49,0,.95-.05,1.36-.16.41-.11.8-.26,1.16-.45.36-.2.71-.44,1.04-.72s.66-.6.97-.96v-3.53c-1.3,0-2.4.09-3.3.26-.91.18-1.64.4-2.21.69-.57.28-.98.62-1.24,1-.26.39-.39.82-.39,1.29s.07.84.2,1.17c.14.33.32.6.55.81s.51.36.82.46c.32.1.66.14,1.03.14Z"/>
      <path class="cls-1" d="M1510.89,68.94v24.86h-2.81v-24.86h2.81Z"/>
      <path class="cls-1" d="M1519.61,71.33c0,.29-.06.57-.16.82-.11.25-.26.48-.44.68-.19.2-.4.35-.64.46s-.5.17-.77.17-.53-.06-.77-.17-.45-.27-.63-.46c-.19-.2-.33-.42-.44-.68s-.16-.53-.16-.82.05-.57.16-.83c.11-.27.25-.5.44-.69.18-.2.4-.35.63-.46s.49-.17.77-.17.53.06.77.17.46.27.64.46c.18.2.33.43.44.69.11.26.16.54.16.83ZM1518.98,76.7v17.1h-2.81v-17.1h2.81Z"/>
      <path class="cls-1" d="M1535.71,93.8h-1.25c-.27,0-.5-.04-.66-.14-.17-.09-.28-.28-.33-.57l-.32-1.59c-.42.4-.83.77-1.23,1.09-.4.32-.82.59-1.26.81-.44.22-.91.39-1.42.5-.5.11-1.06.17-1.67.17s-1.2-.09-1.75-.28c-.54-.19-1.01-.47-1.41-.84s-.72-.84-.96-1.41c-.24-.57-.36-1.24-.36-2.02,0-.68.17-1.33.52-1.96.35-.63.91-1.18,1.68-1.67s1.79-.88,3.04-1.19c1.25-.31,2.79-.47,4.6-.47v-1.34c0-1.34-.27-2.35-.8-3.03-.53-.68-1.32-1.03-2.36-1.03-.69,0-1.26.09-1.73.28-.47.19-.87.39-1.22.62-.34.23-.64.44-.89.62-.25.19-.49.28-.74.28-.19,0-.36-.05-.5-.16-.14-.11-.25-.24-.34-.4l-.51-.96c.89-.91,1.84-1.59,2.86-2.04s2.16-.68,3.4-.68c.9,0,1.69.16,2.39.47.7.32,1.28.75,1.75,1.32.47.56.83,1.24,1.08,2.04.24.8.36,1.68.36,2.63v10.94ZM1528.4,91.96c.49,0,.95-.05,1.36-.16.41-.11.8-.26,1.16-.45.36-.2.71-.44,1.04-.72s.66-.6.97-.96v-3.53c-1.3,0-2.4.09-3.3.26-.91.18-1.64.4-2.21.69-.57.28-.98.62-1.24,1-.26.39-.39.82-.39,1.29s.07.84.2,1.17c.14.33.32.6.55.81s.51.36.82.46c.32.1.66.14,1.03.14Z"/>
      <path class="cls-1" d="M1543.99,97.97c.06,0,.14.02.22.06.08.04.18.09.3.14.12.05.26.1.43.14.17.04.36.06.58.06.44,0,.78-.09,1-.28.23-.19.34-.43.34-.72,0-.21-.06-.39-.17-.54-.12-.15-.28-.27-.5-.37s-.48-.19-.8-.25c-.32-.07-.67-.13-1.08-.19l.58-2.04c-.87-.12-1.68-.41-2.43-.85s-1.38-1.04-1.92-1.78c-.54-.74-.96-1.62-1.26-2.65-.31-1.03-.46-2.17-.46-3.44s.17-2.45.5-3.53c.33-1.08.82-2.01,1.45-2.79.64-.78,1.43-1.39,2.36-1.83.94-.44,2.01-.66,3.23-.66,1.12,0,2.11.19,2.97.58.86.39,1.63.94,2.29,1.65l-.74,1.08c-.08.12-.17.22-.25.29-.08.07-.21.1-.36.1s-.33-.07-.51-.21c-.18-.14-.42-.29-.7-.46-.28-.17-.63-.32-1.04-.46-.4-.14-.9-.21-1.49-.21-.78,0-1.47.15-2.07.45-.6.3-1.1.73-1.51,1.29-.41.56-.71,1.24-.92,2.04-.2.8-.31,1.69-.31,2.68s.11,1.96.33,2.76c.22.8.53,1.48.93,2.02.4.55.89.96,1.46,1.25.57.29,1.22.43,1.94.43s1.25-.09,1.69-.26c.44-.17.81-.37,1.11-.58.29-.21.54-.41.73-.58s.38-.26.57-.26c.12,0,.22.02.31.08.09.05.17.12.23.21l.79,1.1c-.62.81-1.38,1.42-2.28,1.84s-1.85.67-2.88.76l-.27.98c.95.23,1.64.53,2.06.92.43.39.64.89.64,1.49,0,.36-.08.68-.25.97s-.4.53-.7.74c-.3.2-.66.36-1.08.46s-.88.16-1.39.16c-.43,0-.84-.05-1.23-.14-.39-.1-.75-.22-1.08-.38l.27-.93c.06-.2.18-.31.36-.31Z"/>
      <path class="cls-1" d="M1566.5,93.8h-1.25c-.27,0-.5-.04-.66-.14-.17-.09-.28-.28-.33-.57l-.32-1.59c-.42.4-.83.77-1.23,1.09s-.82.59-1.26.81c-.44.22-.91.39-1.42.5-.5.11-1.06.17-1.67.17s-1.2-.09-1.75-.28c-.54-.19-1.01-.47-1.41-.84-.4-.37-.72-.84-.96-1.41-.24-.57-.36-1.24-.36-2.02,0-.68.17-1.33.52-1.96s.91-1.18,1.68-1.67,1.79-.88,3.04-1.19c1.25-.31,2.79-.47,4.6-.47v-1.34c0-1.34-.27-2.35-.8-3.03-.53-.68-1.32-1.03-2.36-1.03-.69,0-1.26.09-1.73.28-.47.19-.87.39-1.22.62-.34.23-.64.44-.89.62-.25.19-.49.28-.74.28-.19,0-.36-.05-.5-.16-.14-.11-.25-.24-.34-.4l-.51-.96c.89-.91,1.84-1.59,2.86-2.04,1.02-.45,2.16-.68,3.4-.68.9,0,1.69.16,2.39.47.7.32,1.28.75,1.75,1.32.47.56.83,1.24,1.08,2.04.24.8.36,1.68.36,2.63v10.94ZM1562.52,71.44c.38,0,.67-.12.88-.35.21-.24.31-.6.32-1.1h1.71c0,.53-.06,1.02-.2,1.46-.13.44-.32.82-.57,1.14-.25.32-.54.56-.88.74-.34.17-.73.26-1.15.26-.37,0-.72-.08-1.04-.24-.32-.16-.62-.34-.91-.53-.28-.19-.55-.37-.81-.53-.25-.16-.5-.24-.74-.24-.76,0-1.15.49-1.17,1.49h-1.75c0-.54.07-1.03.21-1.48.14-.44.33-.83.58-1.15.25-.32.55-.57.9-.74s.73-.26,1.14-.26c.37,0,.71.08,1.03.24.32.16.62.34.91.53s.55.37.8.53c.25.16.49.24.74.24ZM1559.2,91.96c.49,0,.95-.05,1.36-.16.41-.11.8-.26,1.16-.45.36-.2.71-.44,1.04-.72s.66-.6.97-.96v-3.53c-1.3,0-2.4.09-3.3.26-.91.18-1.64.4-2.21.69-.57.28-.98.62-1.24,1-.26.39-.39.82-.39,1.29s.07.84.2,1.17c.14.33.32.6.55.81s.51.36.82.46c.32.1.66.14,1.03.14Z"/>
      <path class="cls-1" d="M1577.26,76.43c1.17,0,2.23.21,3.17.62s1.74,1.01,2.4,1.77,1.16,1.69,1.52,2.78c.35,1.09.53,2.3.53,3.64s-.18,2.57-.53,3.65c-.35,1.08-.86,2-1.52,2.77-.66.77-1.46,1.35-2.4,1.76-.94.41-2,.62-3.17.62s-2.23-.21-3.17-.62-1.75-1-2.41-1.76c-.66-.76-1.18-1.69-1.53-2.77-.36-1.08-.54-2.3-.54-3.65s.18-2.55.54-3.64c.36-1.08.87-2.01,1.53-2.78.66-.77,1.47-1.36,2.41-1.77s2-.62,3.17-.62ZM1577.26,91.69c1.58,0,2.76-.57,3.54-1.7.78-1.13,1.17-2.71,1.17-4.74s-.39-3.62-1.17-4.76c-.78-1.14-1.96-1.71-3.54-1.71-.8,0-1.5.15-2.09.44-.59.29-1.08.72-1.48,1.27-.4.55-.69,1.23-.88,2.03-.19.81-.29,1.71-.29,2.73s.1,1.92.29,2.72c.19.8.49,1.47.88,2.02s.89.96,1.48,1.26c.59.29,1.29.44,2.09.44Z"/>
      <path class="cls-1" d="M1605.73,93.8c-.4,0-.65-.21-.76-.62l-.25-2.08c-.68.89-1.47,1.6-2.35,2.13s-1.89.8-3.03.8c-.92,0-1.75-.19-2.5-.57-.75-.38-1.39-.93-1.91-1.66-.53-.73-.93-1.64-1.22-2.73-.28-1.09-.43-2.35-.43-3.76,0-1.26.16-2.43.48-3.52.32-1.08.77-2.03,1.37-2.83.6-.8,1.32-1.43,2.17-1.88.85-.45,1.82-.68,2.91-.68.98,0,1.82.18,2.51.53.7.35,1.32.85,1.87,1.49v-9.49h2.81v24.86h-1.68ZM1600.27,91.61c.92,0,1.72-.23,2.41-.68.69-.45,1.33-1.08,1.9-1.91v-8.27c-.52-.74-1.08-1.26-1.7-1.56s-1.3-.45-2.05-.45c-1.5,0-2.65.57-3.45,1.71-.8,1.14-1.2,2.76-1.2,4.86,0,1.11.09,2.07.27,2.86.18.79.44,1.45.79,1.96.35.51.78.89,1.28,1.12s1.09.36,1.74.36Z"/>
      <path class="cls-1" d="M1618.61,76.43c1.17,0,2.23.21,3.17.62.94.42,1.74,1.01,2.4,1.77s1.16,1.69,1.52,2.78c.35,1.09.53,2.3.53,3.64s-.18,2.57-.53,3.65c-.35,1.08-.86,2-1.52,2.77-.66.77-1.46,1.35-2.4,1.76-.94.41-2,.62-3.17.62s-2.23-.21-3.17-.62c-.94-.41-1.75-1-2.41-1.76-.66-.76-1.18-1.69-1.53-2.77-.36-1.08-.54-2.3-.54-3.65s.18-2.55.54-3.64c.36-1.08.87-2.01,1.53-2.78.66-.77,1.47-1.36,2.41-1.77s2-.62,3.17-.62ZM1618.61,91.69c1.58,0,2.76-.57,3.54-1.7.78-1.13,1.17-2.71,1.17-4.74s-.39-3.62-1.17-4.76c-.78-1.14-1.96-1.71-3.54-1.71-.8,0-1.5.15-2.09.44-.59.29-1.08.72-1.48,1.27-.4.55-.69,1.23-.88,2.03-.19.81-.29,1.71-.29,2.73s.1,1.92.29,2.72c.19.8.49,1.47.88,2.02s.89.96,1.48,1.26c.59.29,1.29.44,2.09.44Z"/>
      <path class="cls-1" d="M1638.88,79.52c-.13.25-.32.37-.58.37-.16,0-.34-.06-.54-.19s-.44-.26-.74-.41c-.29-.15-.63-.29-1.03-.42-.4-.13-.87-.19-1.42-.19-.48,0-.9.06-1.28.19-.38.13-.7.31-.97.53s-.47.49-.62.78-.21.62-.21.97c0,.44.12.8.36,1.1.24.29.55.54.94.76.39.21.83.4,1.33.57.49.16,1,.34,1.53.52.52.19,1.03.39,1.53.61.49.23.94.51,1.33.84.39.34.7.75.94,1.24s.36,1.08.36,1.76c0,.79-.13,1.52-.4,2.18-.26.67-.65,1.25-1.17,1.74-.52.49-1.15.87-1.9,1.16-.75.28-1.61.42-2.59.42-1.12,0-2.13-.19-3.04-.58-.91-.39-1.67-.89-2.31-1.49l.66-1.15c.08-.15.19-.26.3-.34.12-.08.27-.12.46-.12s.39.08.6.24c.21.16.47.33.77.52.3.19.66.37,1.09.52.43.16.96.24,1.6.24.55,0,1.03-.08,1.44-.23.41-.15.75-.36,1.03-.62.27-.26.48-.56.61-.9.13-.34.2-.7.2-1.08,0-.47-.12-.86-.36-1.17s-.55-.57-.94-.79c-.39-.22-.83-.41-1.33-.57-.5-.16-1.01-.33-1.53-.51-.52-.18-1.03-.39-1.53-.62-.5-.23-.95-.52-1.34-.87-.39-.35-.7-.78-.94-1.29-.24-.51-.36-1.13-.36-1.87,0-.65.13-1.28.38-1.88.25-.6.62-1.13,1.11-1.59.48-.45,1.08-.82,1.79-1.09s1.51-.4,2.42-.4c1.05,0,2,.18,2.84.53.84.36,1.56.84,2.17,1.46l-.63,1.1Z"/>
      <rect class="cls-1" x="1386.57" y="28.33" width="7.29" height="110.34" transform="translate(2780.43 167) rotate(180)"/>
    </g>
    <g>
      <path class="cls-1" d="M1530.8,149.79c1.41,0,2.64.17,3.67.5,1.03.33,1.89.8,2.56,1.39.67.6,1.17,1.31,1.5,2.14s.49,1.74.49,2.72-.17,1.96-.51,2.82c-.34.85-.85,1.59-1.54,2.2s-1.54,1.09-2.57,1.43c-1.03.34-2.23.51-3.61.51h-2.94v7.44h-3.93v-21.15h6.87ZM1530.8,160.42c.72,0,1.35-.09,1.89-.27.54-.18.98-.44,1.34-.77.36-.34.62-.75.8-1.23.18-.48.26-1.02.26-1.62s-.09-1.08-.26-1.54c-.18-.46-.44-.85-.79-1.17-.35-.32-.79-.57-1.33-.74s-1.17-.26-1.9-.26h-2.94v7.59h2.94Z"/>
      <path class="cls-1" d="M1559.86,149.79v21.15h-2.02c-.31,0-.57-.05-.78-.15s-.41-.28-.61-.52l-11.04-14.1c.06.64.09,1.24.09,1.78v12.99h-3.47v-21.15h2.06c.17,0,.31,0,.43.02.12.01.23.04.32.09.09.04.18.11.27.19.09.08.19.19.29.33l11.09,14.16c-.03-.34-.05-.68-.07-1.01-.02-.33-.03-.64-.03-.92v-12.86h3.47Z"/>
      <path class="cls-1" d="M1582.69,170.94h-3.04c-.34,0-.62-.09-.83-.26s-.38-.38-.48-.64l-1.58-4.32h-8.76l-1.58,4.32c-.08.22-.23.43-.45.61s-.5.28-.83.28h-3.07l8.32-21.15h4.01l8.31,21.15ZM1575.74,162.96l-2.57-7.03c-.13-.31-.26-.68-.39-1.11-.14-.43-.27-.89-.41-1.39-.13.5-.26.96-.39,1.4s-.27.81-.39,1.13l-2.56,7.01h6.73Z"/>
      <path class="cls-1" d="M1588.84,152.92v5.87h7.4v3.03h-7.4v5.98h9.39v3.14h-13.34v-21.15h13.34v3.13h-9.39Z"/>
      <path class="cls-1" d="M1612.97,153.64c-.12.2-.24.35-.37.45-.13.09-.3.14-.49.14s-.43-.07-.67-.23c-.24-.15-.52-.32-.86-.5s-.72-.35-1.16-.5c-.44-.15-.97-.23-1.57-.23-.55,0-1.02.07-1.43.2-.41.13-.75.32-1.03.55-.28.23-.49.51-.62.84s-.2.68-.2,1.07c0,.5.14.91.42,1.24.28.33.65.61,1.1.85.46.23.98.44,1.57.63.58.19,1.18.38,1.8.59s1.21.45,1.8.73c.59.28,1.11.63,1.57,1.05.46.42.83.94,1.1,1.56.28.61.42,1.36.42,2.24,0,.96-.16,1.85-.49,2.68s-.8,1.56-1.43,2.18c-.63.62-1.4,1.11-2.3,1.46s-1.95.53-3.12.53c-.67,0-1.34-.07-1.99-.2s-1.28-.32-1.88-.56c-.6-.24-1.16-.54-1.69-.88-.53-.34-1-.72-1.4-1.14l1.16-1.89c.1-.14.22-.25.38-.34.16-.09.32-.14.5-.14.24,0,.51.1.79.3.28.2.62.42,1.01.67.39.24.85.47,1.37.67.52.2,1.15.3,1.88.3,1.12,0,1.99-.27,2.6-.8.61-.53.92-1.3.92-2.29,0-.56-.14-1.01-.42-1.36-.28-.35-.65-.65-1.1-.89-.46-.24-.98-.44-1.57-.61-.58-.17-1.18-.35-1.78-.54-.61-.2-1.2-.43-1.78-.7-.59-.27-1.11-.63-1.57-1.07-.46-.44-.83-.99-1.1-1.65s-.42-1.47-.42-2.43c0-.77.15-1.52.46-2.25.31-.73.75-1.38,1.34-1.95s1.31-1.02,2.16-1.36c.86-.34,1.84-.51,2.95-.51,1.25,0,2.4.19,3.45.58,1.05.39,1.95.94,2.69,1.64l-.98,1.86Z"/>
      <path class="cls-1" d="M1624.17,160.6h7.58v3.01h-7.58v-3.01Z"/>
      <path class="cls-1" d="M1654.87,167.58c.39,0,.7.11.93.33.23.22.34.51.34.87v2.16h-14.51v-1.2c0-.24.05-.5.15-.77.1-.27.27-.51.49-.72l6.42-6.44c.54-.55,1.02-1.07,1.44-1.56s.78-.99,1.06-1.48c.28-.49.5-.98.65-1.48.15-.5.23-1.03.23-1.59,0-.51-.07-.95-.22-1.34-.15-.39-.35-.71-.62-.97-.27-.26-.59-.46-.97-.59-.37-.13-.8-.2-1.27-.2-.43,0-.83.06-1.19.18-.37.12-.69.29-.97.51s-.52.48-.72.77-.34.61-.44.97c-.17.45-.38.75-.64.89-.26.15-.64.18-1.14.1l-1.9-.34c.15-1.01.43-1.9.85-2.67.42-.77.94-1.4,1.57-1.92.63-.51,1.35-.9,2.16-1.16.81-.26,1.69-.39,2.63-.39s1.87.14,2.68.43c.81.29,1.5.69,2.08,1.22.58.53,1.02,1.16,1.35,1.9.32.74.48,1.57.48,2.47,0,.78-.11,1.5-.34,2.16s-.54,1.3-.92,1.9c-.39.61-.84,1.19-1.35,1.76s-1.06,1.14-1.62,1.73l-4.77,4.87c.46-.14.91-.24,1.37-.31s.89-.11,1.29-.11h5.43Z"/>
      <path class="cls-1" d="M1673.73,160.37c0,1.84-.2,3.44-.59,4.8-.39,1.36-.94,2.48-1.64,3.37-.7.89-1.52,1.55-2.47,1.98-.95.43-1.98.65-3.08.65s-2.12-.22-3.06-.65c-.94-.43-1.76-1.09-2.45-1.98-.69-.89-1.23-2.01-1.62-3.37-.39-1.36-.59-2.96-.59-4.8s.19-3.46.59-4.81c.39-1.36.93-2.48,1.62-3.36.69-.89,1.51-1.55,2.45-1.98s1.96-.65,3.06-.65,2.13.22,3.08.65,1.77,1.09,2.47,1.98c.7.89,1.24,2.01,1.64,3.36.39,1.35.59,2.96.59,4.81ZM1670,160.37c0-1.53-.11-2.8-.34-3.8s-.52-1.8-.9-2.4c-.37-.59-.81-1.01-1.29-1.25-.49-.24-.99-.36-1.52-.36s-1.02.12-1.5.36c-.48.24-.91.66-1.28,1.25-.37.6-.67,1.39-.89,2.4-.22,1-.33,2.27-.33,3.8s.11,2.8.33,3.8c.22,1,.51,1.8.89,2.4.37.6.8,1.01,1.28,1.25.48.24.98.36,1.5.36s1.03-.12,1.52-.36c.49-.24.92-.66,1.29-1.25.38-.59.67-1.39.9-2.4.22-1,.34-2.27.34-3.8Z"/>
      <path class="cls-1" d="M1688.81,167.58c.39,0,.7.11.93.33.23.22.34.51.34.87v2.16h-14.51v-1.2c0-.24.05-.5.15-.77.1-.27.27-.51.49-.72l6.42-6.44c.54-.55,1.02-1.07,1.44-1.56s.78-.99,1.06-1.48c.28-.49.5-.98.65-1.48.15-.5.23-1.03.23-1.59,0-.51-.07-.95-.22-1.34-.15-.39-.35-.71-.62-.97-.27-.26-.59-.46-.97-.59-.37-.13-.8-.2-1.27-.2-.43,0-.83.06-1.19.18-.37.12-.69.29-.97.51s-.52.48-.72.77-.34.61-.44.97c-.17.45-.38.75-.64.89-.26.15-.64.18-1.14.1l-1.9-.34c.15-1.01.43-1.9.85-2.67.42-.77.94-1.4,1.57-1.92.63-.51,1.35-.9,2.16-1.16.81-.26,1.69-.39,2.63-.39s1.87.14,2.68.43c.81.29,1.5.69,2.08,1.22.58.53,1.02,1.16,1.35,1.9.32.74.48,1.57.48,2.47,0,.78-.11,1.5-.34,2.16s-.54,1.3-.92,1.9c-.39.61-.84,1.19-1.35,1.76s-1.06,1.14-1.62,1.73l-4.77,4.87c.46-.14.91-.24,1.37-.31s.89-.11,1.29-.11h5.43Z"/>
      <path class="cls-1" d="M1707.64,162.97v2.09c0,.19-.06.36-.19.5-.13.14-.31.21-.54.21h-1.93v5.16h-3.14v-5.16h-8.92c-.24,0-.46-.08-.64-.23-.19-.15-.3-.34-.35-.56l-.38-1.83,10.02-13.38h3.42v13.19h2.66ZM1701.84,162.97v-6.92c0-.65.04-1.37.13-2.16l-6.57,9.08h6.44Z"/>
    </g>
  </g>
  <g>
    <path class="cls-1" d="M2210.07,131.12c-.28-.02-.52-.04-.75-.04-3.85,0-6.48,1.5-6.48,4.21s2.66,4.62,6.48,4.62c.23,0,.47,0,.75-.03v3.46h-.02c-.24.01-.48.02-.73.02-4.83,0-9.93-1.67-11.29-5.8v5.8h-5.23l-9.02-10.01v10.01h-7.62c-5.6-.03-11.54-2.3-11.54-8.06,0-5.02,5.22-7.34,10.49-7.63v3.46c-3.21.27-5.33,1.73-5.33,4.16,0,2.69,2.63,4.59,6.4,4.62h2.43v-12.27c2.83,0,5.69,1,8.05,3.62,2.29,2.54,6.26,6.94,6.26,6.94v-10.57h5.11v5.55c1.36-3.88,6.46-5.56,11.29-5.56.25,0,.51.02.75.03v3.46Z"/>
    <path class="cls-1" d="M2249.6,135.49h-6.15c.32-1.59,1.42-2.62,3.12-2.62s2.79,1.06,3.04,2.62M2268,136.42c0-2.09,2.18-3.78,4.87-3.78.33,0,.65.02.96.07v-2.64c-.58-.08-1.2-.12-1.87-.12-4.64,0-8.14,2.78-8.14,6.49,0,.28.03.54.07.8-.67-1.18-2.18-1.78-4.36-2.23-2.74-.56-3.11-.8-3.06-1.4.05-.57.97-1.1,2.34-1.1.88,0,2.05.21,3.1.69v-2.76c-1.01-.31-2.11-.52-3.29-.52-3.45,0-5.77,1.66-5.95,3.93,0,.04,0,.07,0,.11-.82-2.27-2.76-3.99-6.14-3.99-4.04,0-6.79,2.95-6.79,6.53,0,.19.04.36.05.55-.65-1.64-2.51-2.48-5.38-3.12-3.08-.67-3.85-1-3.85-2v-.04c0-.74.79-1.33,2.29-1.33s2.71.55,4.26,1.46v-3.6c-1.35-.53-2.54-.82-4.21-.82-3.65,0-6.25,1.82-6.25,4.58v.04c0,3.02,2.32,3.87,5.91,4.65,2.98.65,3.59,1.08,3.59,1.93v.04c0,.89-.97,1.43-2.57,1.43-2.04,0-3.85-.8-5.45-1.93l-2.32,2.37c2.14,1.63,4.99,2.51,7.69,2.51,3.84,0,6.54-1.69,6.55-4.7.81,2.65,3.18,4.39,6.44,4.39.62,0,1.5-.02,2.96-.38v-2.74c-1.36.39-1.94.43-2.73.39-1.59-.08-2.89-.98-3.27-2.55h9.64c.02-.32.05-.53.05-.88v-.05c0-.37-.03-.73-.08-1.08.71,1.06,2.32,1.49,4.57,1.94,2.68.54,2.83.95,2.83,1.59,0,.56-.72,1.19-2.3,1.14-1.63-.05-3.54-.54-5.01-1.37v3.17c1.54.69,3.49,1.12,5,1.12,3.63,0,6.12-2.13,6.12-4.42,0-.09-.02-.16-.02-.24.63,1.55,1.9,2.73,3.36,3.44,1.43.69,2.96.91,4.22.92.74,0,1.38-.05,2-.15v-2.68c-.31.05-.63.08-.96.08-2.69,0-4.87-1.69-4.87-3.78"/>
    <path class="cls-1" d="M2258.36,57.91c-5.55-3.82-12.25-6.84-19.6-8.64-1.82-.43-3.65-.83-5.54-1.11-.07-.01-.15-.01-.22-.03-2.68,1.98-5.15,4.17-7.38,6.52,2.46-.36,4.98-.59,7.55-.68,8.97-.33,17.5,1.14,25.19,3.94"/>
    <path class="cls-1" d="M2223.33,75.84c3.49-2.58,7.31-4.88,11.43-6.83,10.15-4.79,20.78-6.81,30.81-6.37-8.63-3.81-18.54-5.82-29.01-5.44-5.16.19-10.15.95-14.87,2.2-2.36,3.16-4.3,6.57-5.78,10.15,2.28,2.24,4.76,4.35,7.44,6.29"/>
    <path class="cls-1" d="M2212.61,85.82c2.75-3.23,5.91-6.23,9.42-8.96-2.42-1.74-4.68-3.6-6.79-5.58-1.68,4.61-2.61,9.5-2.63,14.54"/>
    <path class="cls-1" d="M2215.2,67.11c1.17-2.42,2.46-4.73,3.85-6.93-2.97.92-5.85,2.01-8.58,3.31,1.3,1.65,2.7,3.25,4.19,4.79.18-.39.36-.78.54-1.17"/>
    <path class="cls-1" d="M2250.39,103.12c-.61,3.18-3.89,3.66-4.64,3.7-5.32.28-5.5-3.35-3.72-4.46,2.4-1.49,8.38-.65,8.38-.65,0,.22.06.76-.02,1.41M2205.82,98.19h-10.53c.55-2.8,2.44-4.64,5.33-4.64s4.78,1.87,5.19,4.64M2264.56,98.95v-.1c0-4.35,3.74-7.75,8.52-7.75.26,0,.5,0,.74.02v-5.22c-.22,0-.45,0-.68,0-8.31,0-14.81,4.43-16.16,10.64-.58-4.93-3.97-7.8-10.88-7.8-.31,0-1.38,0-1.67.01v5.27c1.36.01,3.22.24,4.05.68,1.22.64,1.85,1.72,1.88,3.19-1.66-.2-3.55-.33-5.19-.37-6.49-.17-9.78,1.92-10.56,5.29v-3.46c0-5.89-3.6-10.49-11.22-10.49-7.01,0-10.61,3.88-11.15,9.08-.87-5.12-4.53-9.33-11.62-9.33s-12.18,5.12-12.18,11.34v.08c0,.17.02.34.03.51-1.43-2.37-4.62-3.67-9.29-4.68-5.52-1.18-6.3-1.75-6.3-3.49v-.08c0-1.29,1.42-2.31,4.11-2.31,1.37,0,3.17.37,4.42.84v-5.57c-1.17-.2-2.97-.43-4.33-.43-6.53,0-11.18,3.19-11.18,8.01v.07c0,5.28,4.15,6.75,10.59,8.12,5.34,1.14,5.84,1.9,5.84,3.38v.08c0,1.56-1.73,2.5-4.61,2.5-3.65,0-6.07-1.25-8.95-3.23l-4.16,4.14c3.83,2.85,8.13,4.25,12.97,4.25,6.72,0,11.47-2.82,11.71-7.84,1.8,4.27,6.33,6.99,12.01,6.99.21,0,.9-.03,1.11-.03v-4.96c-.18,0-.84.04-1.02.04-3.13,0-5.33-1.46-6.02-4.26h16.79v8.82h7.06v-11.95c.13-2.18.98-4.76,4.17-4.76s4.11,2.58,4.23,4.76v11.95h6.99v-4.79c.82,3.29,4.23,5.07,8.26,5.07,3.41,0,5.75-1.1,7.44-2.77v2.51h6.76v-9.09c1.55,5.89,8,10.19,15.94,10.19.28,0,.53,0,.8-.01v-5.21c-.12,0-.25,0-.38,0-5.15,0-8.89-3.3-8.89-7.84"/>
  </g>
</svg>